<?xml version="1.0" encoding="UTF-8"?>
<!DOCTYPE svg PUBLIC "-//W3C//DTD SVG 1.1//EN" "http://www.w3.org/Graphics/SVG/1.1/DTD/svg11.dtd">
<!-- Creator: CorelDRAW -->
<svg xmlns="http://www.w3.org/2000/svg" xml:space="preserve" width="300px" height="1.05833E+006px" style="shape-rendering:geometricPrecision; text-rendering:geometricPrecision; image-rendering:optimizeQuality; fill-rule:evenodd; clip-rule:evenodd"
viewBox="0 0 300 300"
 xmlns:xlink="http://www.w3.org/1999/xlink">
 <defs>
  <style type="text/css">
   <![CDATA[
    .fil15 {fill:none}
    .fil4 {fill:#885143}
    .fil1 {fill:#B38354}
    .fil12 {fill:black}
    .fil9 {fill:#3A2101}
    .fil8 {fill:#53210A}
    .fil7 {fill:#663200}
    .fil13 {fill:#C0A17B}
    .fil18 {fill:#F90D68}
    .fil0 {fill:#FAFBFB}
    .fil10 {fill:#FBCE97}
    .fil2 {fill:#FFFFCC}
    .fil11 {fill:white}
    .fil6 {fill:#BFDCD8}
    .fil3 {fill:#663200;fill-opacity:0.200000}
    .fil17 {fill:#FFFF99;fill-opacity:0.200000}
    .fil16 {fill:#190F19;fill-rule:nonzero;fill-opacity:0.200000}
    .fil19 {fill:#FFFFCC;fill-opacity:0.501961}
    .fil5 {fill:url(#id0)}
    .fil14 {fill:url(#id1);fill-opacity:0.200000}
   ]]>
  </style>
  <linearGradient id="id0" gradientUnits="userSpaceOnUse" x1="135.605" y1="208.678" x2="257.921" y2="327.996">
   <stop offset="0" style="stop-color:#B38354"/>
   <stop offset="1" style="stop-color:#885143"/>
  </linearGradient>
  <linearGradient id="id1" gradientUnits="userSpaceOnUse" x1="295.824" y1="424.274" x2="302.782" y2="277.795">
   <stop offset="0" style="stop-color:black"/>
   <stop offset="1" style="stop-color:#66322A"/>
  </linearGradient>
 </defs>
 <g id="Layer_x0020_1">
  <metadata id="CorelCorpID_0Corel-Layer"/>
  <g id="_329345608">
   <rect id="_329348440" class="fil0" width="300" height="300"/>
   <path id="_329348368" class="fil1" d="M109.294 298.256c-32.0235,-6.3149 -59.9351,-13.5529 -81.2096,-45.7375 -2.822,1.8585 -7.5445,0.764 -10.1357,-4.2018 -3.2741,-6.2744 0.8983,-10.3372 4.9819,-10.2249 3.9409,-31.3636 48.991,-64.1708 69.6865,-92.9569l17.4889 17.2163c-10.69,4.0532 -65.0703,64.5773 -67.1525,80.2053 16.3865,32.0448 44.157,22.8119 66.7646,16.9447l-0.4241 38.7548z"/>
   <path id="_329348296" class="fil2" d="M246.371 222.534c2.7189,0.8032 28.6581,-9.7079 43.0687,-7.8294 2.9149,0.3799 6.4928,1.9374 10.5599,4.1957l0 43.3107c-26.8588,-5.8841 -46.6755,-1.0515 -57.2684,9.8822l3.6398 -49.5592z"/>
   <path id="_329348224" class="fil3" d="M294.992 261.221c-18.5569,-1.1351 -32.7357,2.3109 -41.0301,10.8722l3.6397 -49.5562c24.5136,7.1849 46.3401,20.9224 37.3904,38.684z"/>
   <path id="_329348152" class="fil4" d="M273.556 248.541c10.8465,5.5032 19.396,10.8669 26.4444,16.4056l0 35.041c-15.6297,-12.0425 -33.493,-21.4238 -43.4438,-37.7711l16.9994 -13.6755z"/>
   <path id="_329348080" class="fil4" d="M273.556 248.541c10.8471,5.5035 19.3958,10.8676 26.4444,16.4066l0 35.0428c-15.6291,-12.0442 -33.4926,-21.426 -43.4438,-37.7739l16.9994 -13.6755z"/>
   <path id="_329348008" class="fil5" d="M295.609 300c-1.8686,-22.2946 -8.225,-41.3559 -22.053,-51.4585 -23.2635,-10.6423 -53.6491,-7.1594 -78.374,-7.1594 -26.5894,1.2625 -61.2199,-4.7082 -75.2119,7.1594 -13.8279,10.1026 -20.1843,29.1639 -22.0529,51.4585l197.692 0z"/>
   <path id="_329347936" class="fil6" d="M220.036 240.893c-8.5825,0.1383 -17.0041,0.4893 -24.8549,0.4893 -11.7628,0.5586 -25.0989,-0.298 -37.5264,-0.3999l2.5051 34.0939 1.6962 24.9239 53.5771 0 2.1497 -21.7246 2.4532 -37.3826z"/>
   <polygon id="_329347864" class="fil7" points="252.175,284.535 248.397,300 215.434,300 216.089,293.378 "/>
   <polygon id="_329347792" class="fil7" points="161.196,290.298 161.857,300 142.576,300 140.789,285.071 "/>
   <path id="_329347720" class="fil2" d="M203.262 215.064c-15.9277,-1.9576 -77.9967,0.4778 -86.8959,11.8493 -24.9412,31.8703 33.6434,79.7784 61.7609,57.8111 8.4433,-6.5968 -9.7172,-25.8368 -7.1814,-35.1893 4.3794,-16.1537 49.2699,-21.1444 50.9884,6.8224 0.4598,7.4806 -14.1965,9.8078 -13.2857,28.3669 1.0982,22.3719 52.3802,-2.6332 63.1971,-11.4904 46.3299,-37.9386 -36.6233,-56.8658 -68.5834,-58.17z"/>
   <path id="_329347648" class="fil8" d="M174.054 29.3455c-9.9362,2.4403 -24.1973,-9.7388 -20.8775,-29.3455l-17.7094 0c-13.3998,19.2185 -4.0536,37.567 0.8164,43.1665 -14.6674,-3.4324 -14.7135,-7.1629 -23.5467,-26.0163 -26.7134,35.9764 -12.466,105.833 17.7928,115.9 -1.5801,12.59 -0.3317,26.2367 -0.106,41.9841 0.3047,21.2452 -3.727,62.2477 4.6342,83.2462 10.7921,27.1024 97.154,25.8362 114.444,9.5437 9.4449,-8.9003 16.6346,-39.202 14.3125,-89.9585 -0.7779,-17.0068 -1.0742,-48.1572 14.1649,-64.3098 15.2366,-16.1494 3.9841,-46.3525 -19.9179,-39.913 7.9476,-8.1327 11.8832,-35.1688 -4.6772,-47.1016 -18.1131,-13.0516 -62.1947,-1.404 -79.3303,2.8042z"/>
   <path id="_329347576" class="fil9" d="M104.37 100.888c5.5084,15.9149 14.6797,28.3426 26.1591,32.162l15.0454 0.7864 107.595 -33.9937c-2.3162,2.3368 -10.1535,-33.6375 -7.2834,-42.5117 6.4007,-19.7914 -8.2619,-21.5079 -28.2813,-20.0224 -84.1388,6.2435 -109.528,46.1765 -113.235,63.5794z"/>
   <path id="_329347504" class="fil10" d="M200.745 67.3428c-60.7189,-1.6715 -65.5686,38.178 -65.5686,97.4539 0,21.2484 -0.2151,56.9088 14.872,73.7395 17.7396,19.7904 58.8194,21.9877 80.0746,11.3716 16.9053,-8.444 29.4476,-33.4479 30.9515,-85.4768 1.1136,-38.5171 0.3895,-95.4165 -60.3295,-97.0882z"/>
   <path id="_329347432" class="fil8" d="M135.177 164.797c1.7456,38.2812 39.2332,58.2443 64.1056,56.6736 44.6924,-2.8228 53.7907,-23.2391 61.9982,-66.9151 0.0918,35.4379 5.7349,63.3746 -0.2293,84.0957 -6.1915,21.5079 -43.4308,19.2588 -61.7689,26.3304 -18.2298,7.0301 -34.8087,4.3913 -45.339,-12.0661 -17.3711,-27.1474 -21.883,-48.8665 -18.7666,-88.1185z"/>
   <path id="_329347360" class="fil11" d="M176.177 102.061c10.1006,0 18.2918,8.1913 18.2918,18.2917 0,10.1008 -8.1912,18.2923 -18.2918,18.2923 -10.101,0 -18.2923,-8.1915 -18.2923,-18.2923 0,-10.1004 8.1913,-18.2917 18.2923,-18.2917z"/>
   <path id="_329347288" class="fil12" d="M176.177 108.318c6.6457,0 12.0354,5.3896 12.0354,12.0353 0,6.6462 -5.3897,12.0359 -12.0354,12.0359 -6.646,0 -12.0358,-5.3897 -12.0358,-12.0359 0,-6.6457 5.3898,-12.0353 12.0358,-12.0353z"/>
   <path id="_329347216" class="fil11" d="M172.11 111.093c3.3165,0 6.0067,2.6899 6.0067,6.007 0,3.3167 -2.6902,6.0066 -6.0067,6.0066 -3.3169,0 -6.0069,-2.6899 -6.0069,-6.0066 0,-3.3171 2.69,-6.007 6.0069,-6.007z"/>
   <path id="_329347144" class="fil11" d="M216.874 103.561c10.1009,0 18.2918,8.1913 18.2918,18.2921 0,10.1005 -8.1909,18.2918 -18.2918,18.2918 -10.1008,0 -18.2921,-8.1913 -18.2921,-18.2918 0,-10.1008 8.1913,-18.2921 18.2921,-18.2921z"/>
   <path id="_329347072" class="fil12" d="M216.874 109.817c6.6461,0 12.0356,5.3897 12.0356,12.0357 0,6.6457 -5.3895,12.0355 -12.0356,12.0355 -6.6459,0 -12.0354,-5.3898 -12.0354,-12.0355 0,-6.646 5.3895,-12.0357 12.0354,-12.0357z"/>
   <path id="_329347000" class="fil11" d="M212.807 112.593c3.317,0 6.0069,2.6895 6.0069,6.0065 0,3.317 -2.6899,6.0064 -6.0069,6.0064 -3.317,0 -6.0068,-2.6894 -6.0068,-6.0064 0,-3.317 2.6898,-6.0065 6.0068,-6.0065z"/>
   <path id="_329346928" class="fil13" d="M188.798 162.492c-9.009,-6.7565 -18.112,0.1076 -13.331,9.6785 4.2661,8.5391 23.2458,0.1825 32.5052,2.5565 5.9876,1.535 6.7822,-5.9245 4.9308,-10.2267 -0.9737,-2.2625 -8.7601,-7.8273 -8.6816,-2.2487 1.798,4.4632 -13.621,1.2608 -15.4234,0.2404z"/>
   <polygon id="_329346856" class="fil14" points="190.953,280.212 193.78,300 300,300 300,268.794 "/>
   <polygon id="_329346784" class="fil2" points="183.467,272.725 187.363,300 299.849,300 293.436,261.21 "/>
   <line id="_329346712" class="fil15" x1="209.375" y1="291.101" x2="277.029" y2= "279.72" />
   <polygon id="_329346640" class="fil16" points="209.098,289.434 276.751,278.053 277.307,281.388 209.653,292.769 "/>
   <line id="_329346568" class="fil15" x1="247.737" y1="300" x2="282.852" y2= "294.093" />
   <polygon id="_329346496" class="fil16" points="247.459,298.332 282.574,292.425 283.13,295.76 257.927,300 247.737,300 "/>
   <polygon id="_329346424" class="fil17" points="231.562,296.113 208.455,300 232.197,300 "/>
   <polygon id="_329346352" class="fil16" points="208.178,298.332 231.284,294.446 232.955,294.164 233.23,295.842 233.865,299.729 233.909,300 208.315,300 "/>
   <path id="_329346280" class="fil12" d="M188.558 169.444c2.9245,0 5.2955,0.6524 5.2955,1.4568 0,0.8039 -2.371,1.456 -5.2955,1.456 -2.9247,0 -5.2961,-0.6521 -5.2961,-1.456 0,-0.8044 2.3714,-1.4568 5.2961,-1.4568z"/>
   <path id="_329346208" class="fil12" d="M202.071 169.444c2.9248,0 5.2958,0.6524 5.2958,1.4568 0,0.8039 -2.371,1.456 -5.2958,1.456 -2.9244,0 -5.2958,-0.6521 -5.2958,-1.456 0,-0.8044 2.3714,-1.4568 5.2958,-1.4568z"/>
   <path id="_329346136" class="fil18" d="M166.05 195.995c21.8404,14.0087 52.5504,8.0877 61.6485,2.0927 -21.84,-14.0088 -52.5505,-8.0878 -61.6485,-2.0927z"/>
   <path id="_329346064" class="fil9" d="M115.033 171.146c38.4311,59.5505 88.6935,28.5215 79.1216,11.9225 -5.4867,-9.5137 -17.8854,-7.0036 -26.662,-1.8262 -19.4361,11.4661 -29.8884,11.4412 -52.4596,-10.0963z"/>
   <path id="_329345992" class="fil9" d="M271.423 171.878c-38.4315,59.5504 -88.6936,28.5214 -79.1218,11.9226 5.4868,-9.5139 17.8856,-7.0037 26.662,-1.8262 19.4361,11.466 29.8886,11.4412 52.4598,-10.0964z"/>
   <path id="_329345920" class="fil13" d="M137.113 144.414c-0.6878,-1.7213 1.2196,-11.7729 -5.0392,-11.3686 -0.9563,0.0614 -3.822,5.3447 -4.1622,6.3538 -1.5589,4.6152 -2.1946,17.3963 4.872,18.1449 6.4143,0.6801 4.127,-8.7348 4.3294,-13.1301z"/>
   <path id="_329345848" class="fil13" d="M257.849 143.06c0.6876,-1.7212 -1.2195,-11.7729 5.0393,-11.3686 0.9565,0.0616 3.8216,5.3449 4.1622,6.3536 1.5591,4.6157 2.1945,17.3969 -4.8719,18.1454 -6.4142,0.6796 -4.1273,-8.7351 -4.3296,-13.1304z"/>
   <path id="_329345776" class="fil12" d="M113.932 128.755l1.2856 9.3828c6.4288,3.107 4.6673,4.9672 7.0939,11.9423 1.5687,4.5083 2.6996,10.2286 4.8609,14.345 4.5782,8.7201 13.1559,12.4005 25.7452,11.9408l1.8834 -0.0689c35.7061,-1.3036 31.9787,-36.529 38.2627,-36.7586l5.1795 -0.1891c6.2477,-0.2281 6.4452,35.5975 41.3296,34.3238l1.8833 -0.0686c12.2211,-0.4467 21.5204,-4.5645 25.2938,-13.3334 2.0921,-4.8624 2.7183,-9.3359 4.1514,-14.7911 1.8888,-7.1879 0.0935,-9.5198 6.2556,-12.79l0.811 -10.8441 -0.186 -0.5067 -24.1257 -0.9869c-7.6483,-0.4103 -23.2835,2.2382 -30.1018,3.4054 -7.6984,1.3177 -21.5116,6.0234 -27.0676,6.2262l-1.8834 0.0689c-5.1302,0.187 -18.5581,-2.9577 -24.5447,-3.935 -7.0362,-1.1485 -18.3808,-2.5128 -26.6004,-2.2128l-10.8296 0.3957c-3.6622,0.1333 -19.1328,1.7629 -18.6967,4.4543zm153.873 1.6641c-1.5062,12.197 -4.1037,25.2409 -8.1663,30.8834 -8.0001,11.1106 -30.8047,9.5092 -39.3103,3.2995 -9.3365,-6.8156 -12.3846,-15.8311 -14.9271,-25.6794 -0.5122,-1.9846 0.5701,-4.0079 2.5324,-4.7333 7.608,-2.8114 19.046,-6.0798 32.9687,-7.3039 8.2217,-0.7229 16.1499,-1.1848 22.9836,-0.9434 1.1885,0.0424 2.1944,0.5164 2.9664,1.3984 0.7717,0.882 1.0947,1.9259 0.9526,3.0787zm-144.296 5.2691c2.3915,12.0547 5.9334,24.8744 10.3969,30.2057 8.7888,10.4975 31.4159,7.2369 39.4461,0.4235 8.8146,-7.4785 11.1969,-16.6923 13.0141,-26.6999 0.3663,-2.0164 -0.8607,-3.9553 -2.8706,-4.5355 -7.7925,-2.2496 -19.4388,-4.675 -33.4135,-4.8802 -8.2524,-0.1216 -16.1935,-0.0036 -22.9916,0.7355 -1.1819,0.1286 -2.1503,0.6746 -2.8558,1.6107 -0.7056,0.9359 -0.9517,2.0007 -0.7256,3.1402z"/>
   <path id="_329345704" class="fil19" d="M267.804 130.419c-1.5062,12.197 -4.1037,25.2409 -8.1663,30.8834 -8.0001,11.1106 -30.8047,9.5092 -39.3103,3.2995 -9.3365,-6.8156 -12.3846,-15.8311 -14.9271,-25.6794 -0.5122,-1.9846 0.5701,-4.0079 2.5324,-4.7333 7.608,-2.8114 19.046,-6.0798 32.9687,-7.3039 8.2217,-0.7229 16.1499,-1.1848 22.9836,-0.9434 1.1885,0.0424 2.1944,0.5164 2.9664,1.3984 0.7717,0.882 1.0947,1.9259 0.9526,3.0787zm-144.296 5.2691c2.3915,12.0547 5.9334,24.8744 10.3969,30.2057 8.7888,10.4975 31.4159,7.2369 39.4461,0.4235 8.8146,-7.4785 11.1969,-16.6923 13.0141,-26.6999 0.3663,-2.0164 -0.8607,-3.9553 -2.8706,-4.5355 -7.7925,-2.2496 -19.4388,-4.675 -33.4135,-4.8802 -8.2524,-0.1216 -16.1935,-0.0036 -22.9916,0.7355 -1.1819,0.1286 -2.1503,0.6746 -2.8558,1.6107 -0.7056,0.9359 -0.9517,2.0007 -0.7256,3.1402z"/>
   <path id="_329345632" class="fil10" d="M99.2998 120.074c6.7266,0.7445 13.4999,-4.8374 20.9384,-0.9461 11.0318,5.7716 8.6576,9.6399 -2.4449,10.1084 -0.5624,0.0239 3.2082,4.7292 3.6823,5.7182 1.9768,4.1187 7.4991,27.136 -0.2014,27.461 -3.5532,0.1496 -0.2015,-3.7405 -2.1675,-0.4977 -3.646,6.0116 -12.5538,14.1188 -20.627,7.9058 -2.629,-2.0237 -3.0664,-12.1508 -4.1792,-15.6387 -0.5843,-1.831 -4.0542,-11.7959 -1.6375,-12.7245l6.6368 -21.3864z"/>
  </g>
 </g>
</svg>
